<?xml version="1.0" standalone="no"?>
<!DOCTYPE svg PUBLIC "-//W3C//DTD SVG 20010904//EN"
 "http://www.w3.org/TR/2001/REC-SVG-20010904/DTD/svg10.dtd">
<svg version="1.0" xmlns="http://www.w3.org/2000/svg"
 width="1030.000000pt" height="1030.000000pt" viewBox="0 0 1030.000000 1030.000000"
 preserveAspectRatio="xMidYMid meet">
<metadata>
Created by potrace 1.14, written by Peter Selinger 2001-2017
</metadata>
<g transform="translate(0.000000,1030.000000) scale(0.100000,-0.100000)"
fill="#000000" stroke="none">
<path d="M0 5150 l0 -5150 5150 0 5150 0 0 5150 0 5150 -3615 0 -3615 0 -13
-32 c-19 -45 -49 -69 -86 -70 -63 -2 -72 53 -11 62 23 3 36 11 38 23 3 16 -73
17 -1497 17 l-1501 0 0 -5150z m1100 4525 l0 -495 490 0 490 0 0 495 c0 323 3
495 10 495 7 0 10 -172 10 -495 l0 -495 490 0 490 0 0 95 c0 57 -4 95 -10 95
-5 0 -10 -9 -10 -19 0 -30 -101 -124 -149 -138 -51 -16 -596 -18 -606 -3 -3 6
-15 10 -26 10 -32 0 -132 107 -146 157 -9 29 -13 124 -13 303 0 179 4 274 13
303 14 50 114 157 146 157 11 0 23 5 26 10 10 15 555 13 606 -2 48 -15 149
-109 149 -139 0 -10 5 -19 10 -19 6 0 10 37 10 90 0 53 4 90 10 90 7 0 10
-172 10 -495 l0 -495 490 0 490 0 0 95 c0 57 -4 95 -10 95 -5 0 -10 -9 -10
-19 0 -30 -101 -124 -149 -138 -51 -16 -596 -18 -606 -3 -3 6 -15 10 -26 10
-32 0 -132 107 -146 157 -18 59 -18 547 0 606 14 50 114 157 146 157 11 0 23
5 26 10 10 15 555 13 606 -2 48 -15 149 -109 149 -139 0 -10 5 -19 10 -19 6 0
10 37 10 90 0 53 4 90 10 90 7 0 10 -172 10 -495 l0 -495 490 0 490 0 0 95 c0
57 -4 95 -10 95 -5 0 -10 -9 -10 -19 0 -30 -101 -124 -149 -138 -51 -16 -596
-18 -606 -3 -3 6 -15 10 -26 10 -32 0 -132 107 -146 157 -18 59 -18 547 0 606
14 50 114 157 146 157 11 0 23 5 26 10 10 15 555 13 606 -2 48 -15 149 -109
149 -139 0 -10 5 -19 10 -19 6 0 10 37 10 90 0 53 4 90 10 90 7 0 10 -172 10
-495 l0 -495 490 0 490 0 0 95 c0 57 -4 95 -10 95 -5 0 -10 -9 -10 -19 0 -30
-101 -124 -149 -138 -51 -16 -596 -18 -606 -3 -3 6 -15 10 -26 10 -32 0 -132
107 -146 157 -9 29 -13 124 -13 303 0 179 4 274 13 303 14 50 114 157 146 157
11 0 23 5 26 10 10 15 555 13 606 -2 48 -15 149 -109 149 -139 0 -10 5 -19 10
-19 6 0 10 37 10 90 0 53 4 90 10 90 7 0 10 -172 10 -495 l0 -495 490 0 490 0
0 495 c0 323 3 495 10 495 7 0 10 -172 10 -495 l0 -495 490 0 490 0 0 495 c0
323 3 495 10 495 7 0 10 -172 10 -495 l0 -495 490 0 490 0 0 95 c0 57 -4 95
-10 95 -5 0 -10 -9 -10 -19 0 -30 -101 -124 -149 -138 -51 -16 -596 -18 -606
-3 -3 6 -15 10 -26 10 -32 0 -132 107 -147 157 -17 59 -17 547 1 606 14 50
114 157 146 157 11 0 23 5 26 10 10 15 555 13 606 -2 48 -15 149 -109 149
-139 0 -10 5 -19 10 -19 6 0 10 37 10 90 0 53 4 90 10 90 7 0 10 -172 10 -495
l0 -495 495 0 c323 0 495 -3 495 -10 0 -6 -39 -10 -96 -10 -61 0 -93 -4 -89
-10 3 -5 14 -10 25 -10 23 0 130 -107 130 -130 0 -11 5 -22 10 -25 6 -4 10
-117 10 -305 0 -188 -4 -301 -10 -305 -5 -3 -10 -14 -10 -25 0 -29 -102 -123
-149 -137 -51 -16 -596 -18 -606 -3 -3 6 -15 10 -26 10 -32 0 -132 107 -147
157 -8 29 -12 124 -12 303 0 179 4 274 12 303 15 50 115 157 147 157 12 0 21
5 21 10 0 6 -40 10 -100 10 l-100 0 0 -490 0 -490 495 0 c323 0 495 -3 495
-10 0 -7 -172 -10 -495 -10 l-495 0 0 -490 0 -490 495 0 c323 0 495 -3 495
-10 0 -7 -172 -10 -495 -10 l-495 0 0 -490 0 -490 495 0 c323 0 495 -3 495
-10 0 -7 -172 -10 -495 -10 l-495 0 0 -490 0 -490 495 0 c323 0 495 -3 495
-10 0 -7 -172 -10 -495 -10 l-495 0 0 -490 0 -490 495 0 c323 0 495 -3 495
-10 0 -7 -172 -10 -495 -10 l-495 0 0 -490 0 -490 495 0 c323 0 495 -3 495
-10 0 -7 -172 -10 -495 -10 l-495 0 0 -490 0 -490 495 0 c323 0 495 -3 495
-10 0 -6 -39 -10 -96 -10 -61 0 -93 -4 -89 -10 3 -6 14 -10 25 -10 23 0 130
-107 130 -130 0 -11 5 -22 10 -25 14 -8 14 -602 0 -610 -6 -3 -10 -14 -10 -25
0 -29 -102 -123 -149 -137 -51 -16 -596 -18 -606 -3 -3 6 -15 10 -26 10 -32 0
-132 107 -147 157 -8 29 -12 124 -12 303 0 179 4 274 12 303 15 50 115 157
147 157 12 0 21 5 21 10 0 6 -40 10 -100 10 l-100 0 0 -490 0 -490 495 0 c323
0 495 -3 495 -10 0 -7 -172 -10 -495 -10 l-495 0 0 -485 c0 -317 -3 -485 -10
-485 -7 0 -10 168 -10 485 l0 485 -490 0 -490 0 0 -485 c0 -317 -3 -485 -10
-485 -7 0 -10 168 -10 485 l0 485 -490 0 -490 0 0 -485 c0 -317 -3 -485 -10
-485 -7 0 -10 168 -10 485 l0 485 -490 0 -490 0 0 -485 c0 -317 -3 -485 -10
-485 -6 0 -10 37 -10 90 0 53 -4 90 -10 90 -5 0 -10 -9 -10 -19 0 -30 -101
-124 -149 -138 -51 -16 -596 -18 -606 -3 -3 6 -15 10 -26 10 -32 0 -132 107
-146 157 -18 59 -18 547 0 606 14 50 114 157 146 157 12 0 21 5 21 10 0 6 -40
10 -100 10 l-100 0 0 -485 c0 -317 -3 -485 -10 -485 -6 0 -10 37 -10 90 0 53
-4 90 -10 90 -5 0 -10 -9 -10 -19 0 -30 -101 -124 -149 -138 -51 -16 -596 -18
-606 -3 -3 6 -15 10 -26 10 -32 0 -132 107 -146 157 -18 59 -18 547 0 606 14
50 114 157 146 157 12 0 21 5 21 10 0 6 -40 10 -100 10 l-100 0 0 -485 c0
-317 -3 -485 -10 -485 -7 0 -10 168 -10 485 l0 485 -490 0 -490 0 0 -485 c0
-317 -3 -485 -10 -485 -7 0 -10 168 -10 485 l0 485 -490 0 -490 0 0 -485 c0
-317 -3 -485 -10 -485 -7 0 -10 168 -10 485 l0 485 -490 0 -490 0 0 -485 c0
-317 -3 -485 -10 -485 -7 0 -10 168 -10 485 l0 485 -485 0 c-317 0 -485 3
-485 10 0 7 168 10 485 10 l485 0 0 490 0 490 -485 0 c-317 0 -485 3 -485 10
0 7 168 10 485 10 l485 0 0 490 0 490 -485 0 c-317 0 -485 3 -485 10 0 7 168
10 485 10 l485 0 0 490 0 490 -485 0 c-317 0 -485 3 -485 10 0 7 168 10 485
10 l485 0 0 490 0 490 -485 0 c-317 0 -485 3 -485 10 0 7 168 10 485 10 l485
0 0 95 c0 57 -4 95 -10 95 -5 0 -10 -9 -10 -19 0 -30 -101 -124 -149 -138 -51
-16 -596 -18 -606 -3 -3 6 -15 10 -26 10 -32 0 -132 107 -147 157 -17 59 -17
547 0 606 15 50 115 157 147 157 12 0 21 5 21 10 0 6 -38 10 -95 10 -57 0 -95
4 -95 10 0 7 168 10 485 10 l485 0 0 490 0 490 -485 0 c-317 0 -485 3 -485 10
0 7 168 10 485 10 l485 0 0 490 0 490 -485 0 c-317 0 -485 3 -485 10 0 7 168
10 485 10 l485 0 0 490 0 490 -485 0 c-317 0 -485 3 -485 10 0 7 168 10 485
10 l485 0 0 495 c0 323 3 495 10 495 7 0 10 -172 10 -495z m8811 473 c47 -15
149 -109 149 -138 0 -11 5 -22 10 -25 6 -4 10 -117 10 -305 0 -188 -4 -301
-10 -305 -5 -3 -10 -14 -10 -25 0 -29 -102 -123 -149 -137 -51 -16 -596 -18
-606 -3 -3 6 -15 10 -26 10 -32 0 -132 107 -146 157 -9 29 -13 124 -13 303 0
179 4 274 13 303 14 50 114 157 146 157 11 0 23 5 26 10 10 15 555 13 606 -2z"/>
<path d="M1100 8670 l0 -490 490 0 490 0 0 490 0 490 -490 0 -490 0 0 -490z"/>
<path d="M2100 8670 l0 -490 490 0 490 0 0 490 0 490 -490 0 -490 0 0 -490z"/>
<path d="M3100 8670 l0 -490 490 0 490 0 0 490 0 490 -490 0 -490 0 0 -490z"/>
<path d="M4100 8670 l0 -490 490 0 490 0 0 490 0 490 -490 0 -490 0 0 -490z"/>
<path d="M5100 8670 l0 -490 490 0 490 0 0 490 0 490 -490 0 -490 0 0 -490z"/>
<path d="M6100 8670 l0 -490 490 0 490 0 0 490 0 490 -490 0 -490 0 0 -490z"/>
<path d="M7100 8670 l0 -490 490 0 490 0 0 490 0 490 -490 0 -490 0 0 -490z"/>
<path d="M8100 8670 l0 -490 490 0 490 0 0 490 0 490 -490 0 -490 0 0 -490z"/>
<path d="M1100 7670 l0 -490 490 0 490 0 0 490 0 490 -490 0 -490 0 0 -490z"/>
<path d="M2100 7670 l0 -490 490 0 490 0 0 490 0 490 -490 0 -490 0 0 -490z"/>
<path d="M3100 7670 l0 -490 490 0 490 0 0 490 0 490 -490 0 -490 0 0 -490z"/>
<path d="M4100 7670 l0 -490 490 0 490 0 0 490 0 490 -490 0 -490 0 0 -490z"/>
<path d="M5100 7670 l0 -490 490 0 490 0 0 490 0 490 -490 0 -490 0 0 -490z"/>
<path d="M6100 7670 l0 -490 490 0 490 0 0 95 c0 57 -4 95 -10 95 -5 0 -10 -9
-10 -19 0 -30 -101 -124 -149 -138 -51 -16 -596 -18 -606 -3 -3 6 -15 10 -26
10 -32 0 -132 107 -146 157 -9 29 -13 124 -13 303 0 179 4 274 13 303 14 50
114 157 146 157 12 0 21 5 21 10 0 6 -40 10 -100 10 l-100 0 0 -490z"/>
<path d="M6905 8150 c3 -5 14 -10 25 -10 24 0 130 -107 130 -131 0 -10 5 -19
10 -19 6 0 10 35 10 85 l0 85 -91 0 c-57 0 -88 -4 -84 -10z"/>
<path d="M7100 7670 l0 -490 490 0 490 0 0 490 0 490 -490 0 -490 0 0 -490z"/>
<path d="M8100 7670 l0 -490 490 0 490 0 0 490 0 490 -490 0 -490 0 0 -490z"/>
<path d="M1100 6670 l0 -490 490 0 490 0 0 490 0 490 -490 0 -490 0 0 -490z"/>
<path d="M2100 6670 l0 -490 490 0 490 0 0 490 0 490 -490 0 -490 0 0 -490z"/>
<path d="M3100 6670 l0 -490 490 0 490 0 0 95 c0 57 -4 95 -10 95 -5 0 -10 -9
-10 -19 0 -30 -101 -124 -149 -138 -51 -16 -596 -18 -606 -3 -3 6 -15 10 -26
10 -32 0 -132 107 -146 157 -9 29 -13 124 -13 303 0 179 4 274 13 303 14 50
114 157 146 157 12 0 21 5 21 10 0 6 -40 10 -100 10 l-100 0 0 -490z"/>
<path d="M3905 7150 c3 -5 14 -10 25 -10 24 0 130 -107 130 -131 0 -10 5 -19
10 -19 6 0 10 35 10 85 l0 85 -91 0 c-57 0 -88 -4 -84 -10z"/>
<path d="M4100 6670 l0 -490 490 0 490 0 0 490 0 490 -490 0 -490 0 0 -490z"/>
<path d="M5100 6670 l0 -490 490 0 490 0 0 490 0 490 -490 0 -490 0 0 -490z"/>
<path d="M6100 6670 l0 -490 490 0 490 0 0 95 c0 57 -4 95 -10 95 -5 0 -10 -9
-10 -19 0 -30 -101 -124 -149 -138 -51 -16 -596 -18 -606 -3 -3 6 -15 10 -26
10 -32 0 -132 107 -146 157 -9 29 -13 124 -13 303 0 179 4 274 13 303 14 50
114 157 146 157 12 0 21 5 21 10 0 6 -40 10 -100 10 l-100 0 0 -490z"/>
<path d="M6905 7150 c3 -5 14 -10 25 -10 24 0 130 -107 130 -131 0 -10 5 -19
10 -19 6 0 10 35 10 85 l0 85 -91 0 c-57 0 -88 -4 -84 -10z"/>
<path d="M7100 6670 l0 -490 490 0 490 0 0 490 0 490 -490 0 -490 0 0 -490z"/>
<path d="M8100 6670 l0 -490 490 0 490 0 0 490 0 490 -490 0 -490 0 0 -490z"/>
<path d="M905 6150 c3 -5 14 -10 25 -10 24 0 130 -107 130 -131 0 -10 5 -19
10 -19 6 0 10 35 10 85 l0 85 -91 0 c-57 0 -88 -4 -84 -10z"/>
<path d="M1100 5670 l0 -490 490 0 490 0 0 95 c0 57 -4 95 -10 95 -5 0 -10 -9
-10 -19 0 -30 -101 -124 -149 -138 -51 -16 -596 -18 -606 -3 -3 6 -15 10 -26
10 -32 0 -132 107 -146 157 -9 29 -13 124 -13 303 0 179 4 274 13 303 14 50
114 157 146 157 12 0 21 5 21 10 0 6 -40 10 -100 10 l-100 0 0 -490z"/>
<path d="M1905 6150 c3 -5 14 -10 25 -10 24 0 130 -107 130 -131 0 -10 5 -19
10 -19 6 0 10 35 10 85 l0 85 -91 0 c-57 0 -88 -4 -84 -10z"/>
<path d="M2100 5670 l0 -490 490 0 490 0 0 490 0 490 -490 0 -490 0 0 -490z"/>
<path d="M3100 5670 l0 -490 490 0 490 0 0 95 c0 57 -4 95 -10 95 -5 0 -10 -9
-10 -19 0 -30 -101 -124 -149 -138 -51 -16 -596 -18 -606 -3 -3 6 -15 10 -26
10 -32 0 -132 107 -146 157 -9 29 -13 124 -13 303 0 179 4 274 13 303 14 50
114 157 146 157 12 0 21 5 21 10 0 6 -40 10 -100 10 l-100 0 0 -490z"/>
<path d="M3905 6150 c3 -5 14 -10 25 -10 24 0 130 -107 130 -131 0 -10 5 -19
10 -19 6 0 10 35 10 85 l0 85 -91 0 c-57 0 -88 -4 -84 -10z"/>
<path d="M4100 5670 l0 -490 490 0 490 0 0 95 c0 57 -4 95 -10 95 -5 0 -10 -9
-10 -19 0 -30 -101 -124 -149 -138 -51 -16 -596 -18 -606 -3 -3 6 -15 10 -26
10 -32 0 -132 107 -146 157 -9 29 -13 124 -13 303 0 179 4 274 13 303 14 50
114 157 146 157 12 0 21 5 21 10 0 6 -40 10 -100 10 l-100 0 0 -490z"/>
<path d="M4905 6150 c3 -5 14 -10 25 -10 24 0 130 -107 130 -131 0 -10 5 -19
10 -19 6 0 10 35 10 85 l0 85 -91 0 c-57 0 -88 -4 -84 -10z"/>
<path d="M5100 5670 l0 -490 490 0 490 0 0 490 0 490 -490 0 -490 0 0 -490z"/>
<path d="M6100 5670 l0 -490 490 0 490 0 0 490 0 490 -490 0 -490 0 0 -490z"/>
<path d="M7100 5670 l0 -490 490 0 490 0 0 490 0 490 -490 0 -490 0 0 -490z"/>
<path d="M8100 5670 l0 -490 490 0 490 0 0 490 0 490 -490 0 -490 0 0 -490z"/>
<path d="M1100 4670 l0 -490 490 0 490 0 0 490 0 490 -490 0 -490 0 0 -490z"/>
<path d="M2100 4670 l0 -490 490 0 490 0 0 490 0 490 -490 0 -490 0 0 -490z"/>
<path d="M3100 4670 l0 -490 490 0 490 0 0 95 c0 57 -4 95 -10 95 -5 0 -10 -9
-10 -19 0 -30 -101 -124 -149 -138 -51 -16 -596 -18 -606 -3 -3 6 -15 10 -26
10 -32 0 -132 107 -146 157 -9 29 -13 124 -13 303 0 179 4 274 13 303 14 50
114 157 146 157 12 0 21 5 21 10 0 6 -40 10 -100 10 l-100 0 0 -490z"/>
<path d="M3905 5150 c3 -5 14 -10 25 -10 24 0 130 -107 130 -131 0 -10 5 -19
10 -19 6 0 10 35 10 85 l0 85 -91 0 c-57 0 -88 -4 -84 -10z"/>
<path d="M4100 4670 l0 -490 490 0 490 0 0 490 0 490 -490 0 -490 0 0 -490z"/>
<path d="M5100 4670 l0 -490 490 0 490 0 0 490 0 490 -490 0 -490 0 0 -490z"/>
<path d="M6100 4670 l0 -490 490 0 490 0 0 490 0 490 -490 0 -490 0 0 -490z"/>
<path d="M7100 4670 l0 -490 490 0 490 0 0 95 c0 57 -4 95 -10 95 -5 0 -10 -9
-10 -19 0 -30 -101 -124 -149 -138 -51 -16 -596 -18 -606 -3 -3 6 -15 10 -26
10 -32 0 -132 107 -146 157 -9 29 -13 124 -13 303 0 179 4 274 13 303 14 50
114 157 146 157 12 0 21 5 21 10 0 6 -40 10 -100 10 l-100 0 0 -490z"/>
<path d="M7905 5150 c3 -5 14 -10 25 -10 24 0 130 -107 130 -131 0 -10 5 -19
10 -19 6 0 10 35 10 85 l0 85 -91 0 c-57 0 -88 -4 -84 -10z"/>
<path d="M8100 4670 l0 -490 490 0 490 0 0 490 0 490 -490 0 -490 0 0 -490z"/>
<path d="M1100 3670 l0 -490 490 0 490 0 0 95 c0 57 -4 95 -10 95 -5 0 -10 -9
-10 -19 0 -30 -101 -124 -149 -138 -51 -16 -596 -18 -606 -3 -3 6 -15 10 -26
10 -32 0 -132 107 -146 157 -9 29 -13 124 -13 303 0 179 4 274 13 303 14 50
114 157 146 157 12 0 21 5 21 10 0 6 -40 10 -100 10 l-100 0 0 -490z"/>
<path d="M1905 4150 c3 -5 14 -10 25 -10 24 0 130 -107 130 -131 0 -10 5 -19
10 -19 6 0 10 35 10 85 l0 85 -91 0 c-57 0 -88 -4 -84 -10z"/>
<path d="M2100 3670 l0 -490 490 0 490 0 0 490 0 490 -490 0 -490 0 0 -490z"/>
<path d="M3100 3670 l0 -490 490 0 490 0 0 490 0 490 -490 0 -490 0 0 -490z"/>
<path d="M4100 3670 l0 -490 490 0 490 0 0 490 0 490 -490 0 -490 0 0 -490z"/>
<path d="M5100 3670 l0 -490 490 0 490 0 0 95 c0 57 -4 95 -10 95 -5 0 -10 -9
-10 -19 0 -30 -101 -124 -149 -138 -51 -16 -596 -18 -606 -3 -3 6 -15 10 -26
10 -32 0 -132 107 -146 157 -9 29 -13 124 -13 303 0 179 4 274 13 303 14 50
114 157 146 157 12 0 21 5 21 10 0 6 -40 10 -100 10 l-100 0 0 -490z"/>
<path d="M5905 4150 c3 -5 14 -10 25 -10 24 0 130 -107 130 -131 0 -10 5 -19
10 -19 6 0 10 35 10 85 l0 85 -91 0 c-57 0 -88 -4 -84 -10z"/>
<path d="M6100 3670 l0 -490 490 0 490 0 0 95 c0 57 -4 95 -10 95 -5 0 -10 -9
-10 -19 0 -30 -101 -124 -149 -138 -51 -16 -596 -18 -606 -3 -3 6 -15 10 -26
10 -32 0 -132 107 -146 157 -9 29 -13 124 -13 303 0 179 4 274 13 303 14 50
114 157 146 157 12 0 21 5 21 10 0 6 -40 10 -100 10 l-100 0 0 -490z"/>
<path d="M6905 4150 c3 -5 14 -10 25 -10 24 0 130 -107 130 -131 0 -10 5 -19
10 -19 6 0 10 35 10 85 l0 85 -91 0 c-57 0 -88 -4 -84 -10z"/>
<path d="M7100 3670 l0 -490 490 0 490 0 0 95 c0 57 -4 95 -10 95 -5 0 -10 -9
-10 -19 0 -30 -101 -124 -149 -138 -51 -16 -596 -18 -606 -3 -3 6 -15 10 -26
10 -32 0 -132 107 -146 157 -9 29 -13 124 -13 303 0 179 4 274 13 303 14 50
114 157 146 157 12 0 21 5 21 10 0 6 -40 10 -100 10 l-100 0 0 -490z"/>
<path d="M7905 4150 c3 -5 14 -10 25 -10 24 0 130 -107 130 -131 0 -10 5 -19
10 -19 6 0 10 35 10 85 l0 85 -91 0 c-57 0 -88 -4 -84 -10z"/>
<path d="M8100 3670 l0 -490 490 0 490 0 0 490 0 490 -490 0 -490 0 0 -490z"/>
<path d="M1100 2670 l0 -490 490 0 490 0 0 95 c0 57 -4 95 -10 95 -5 0 -10 -9
-10 -19 0 -30 -101 -124 -149 -138 -51 -16 -596 -18 -606 -3 -3 6 -15 10 -26
10 -32 0 -132 107 -146 157 -9 29 -13 124 -13 303 0 179 4 274 13 303 14 50
114 157 146 157 12 0 21 5 21 10 0 6 -40 10 -100 10 l-100 0 0 -490z"/>
<path d="M1905 3150 c3 -5 14 -10 25 -10 24 0 130 -107 130 -131 0 -10 5 -19
10 -19 6 0 10 35 10 85 l0 85 -91 0 c-57 0 -88 -4 -84 -10z"/>
<path d="M2100 2670 l0 -490 490 0 490 0 0 95 c0 57 -4 95 -10 95 -5 0 -10 -9
-10 -19 0 -30 -101 -124 -149 -138 -51 -16 -596 -18 -606 -3 -3 6 -15 10 -26
10 -32 0 -132 107 -146 157 -9 29 -13 124 -13 303 0 179 4 274 13 303 14 50
114 157 146 157 12 0 21 5 21 10 0 6 -40 10 -100 10 l-100 0 0 -490z"/>
<path d="M2905 3150 c3 -5 14 -10 25 -10 24 0 130 -107 130 -131 0 -10 5 -19
10 -19 6 0 10 35 10 85 l0 85 -91 0 c-57 0 -88 -4 -84 -10z"/>
<path d="M3100 2670 l0 -490 490 0 490 0 0 490 0 490 -490 0 -490 0 0 -490z"/>
<path d="M4100 2670 l0 -490 490 0 490 0 0 490 0 490 -490 0 -490 0 0 -490z"/>
<path d="M5100 2670 l0 -490 490 0 490 0 0 490 0 490 -490 0 -490 0 0 -490z"/>
<path d="M6100 2670 l0 -490 490 0 490 0 0 490 0 490 -490 0 -490 0 0 -490z"/>
<path d="M7100 2670 l0 -490 490 0 490 0 0 490 0 490 -490 0 -490 0 0 -490z"/>
<path d="M8100 2670 l0 -490 490 0 490 0 0 490 0 490 -490 0 -490 0 0 -490z"/>
<path d="M1100 1670 l0 -490 490 0 490 0 0 490 0 490 -490 0 -490 0 0 -490z"/>
<path d="M2100 1670 l0 -490 490 0 490 0 0 95 c0 57 -4 95 -10 95 -5 0 -10 -9
-10 -19 0 -30 -101 -124 -149 -138 -51 -16 -596 -18 -606 -3 -3 6 -15 10 -26
10 -32 0 -132 107 -146 157 -9 29 -13 124 -13 303 0 179 4 274 13 303 14 50
114 157 146 157 12 0 21 5 21 10 0 6 -40 10 -100 10 l-100 0 0 -490z"/>
<path d="M2905 2150 c3 -5 14 -10 25 -10 24 0 130 -107 130 -131 0 -10 5 -19
10 -19 6 0 10 35 10 85 l0 85 -91 0 c-57 0 -88 -4 -84 -10z"/>
<path d="M3100 1670 l0 -490 490 0 490 0 0 490 0 490 -490 0 -490 0 0 -490z"/>
<path d="M4100 1670 l0 -490 490 0 490 0 0 95 c0 57 -4 95 -10 95 -5 0 -10 -9
-10 -19 0 -30 -101 -124 -149 -138 -51 -16 -596 -18 -606 -3 -3 6 -15 10 -26
10 -32 0 -132 107 -146 157 -9 29 -13 124 -13 303 0 179 4 274 13 303 14 50
114 157 146 157 12 0 21 5 21 10 0 6 -40 10 -100 10 l-100 0 0 -490z"/>
<path d="M4905 2150 c3 -5 14 -10 25 -10 24 0 130 -107 130 -131 0 -10 5 -19
10 -19 6 0 10 35 10 85 l0 85 -91 0 c-57 0 -88 -4 -84 -10z"/>
<path d="M5100 1670 l0 -490 490 0 490 0 0 95 c0 57 -4 95 -10 95 -5 0 -10 -9
-10 -19 0 -30 -101 -124 -149 -138 -51 -16 -596 -18 -606 -3 -3 6 -15 10 -26
10 -32 0 -132 107 -146 157 -9 29 -13 124 -13 303 0 179 4 274 13 303 14 50
114 157 146 157 12 0 21 5 21 10 0 6 -40 10 -100 10 l-100 0 0 -490z"/>
<path d="M5905 2150 c3 -5 14 -10 25 -10 24 0 130 -107 130 -131 0 -10 5 -19
10 -19 6 0 10 35 10 85 l0 85 -91 0 c-57 0 -88 -4 -84 -10z"/>
<path d="M6100 1670 l0 -490 490 0 490 0 0 490 0 490 -490 0 -490 0 0 -490z"/>
<path d="M7100 1670 l0 -490 490 0 490 0 0 490 0 490 -490 0 -490 0 0 -490z"/>
<path d="M8100 1670 l0 -490 490 0 490 0 0 95 c0 57 -4 95 -10 95 -5 0 -10 -9
-10 -19 0 -30 -101 -124 -149 -138 -51 -16 -596 -18 -606 -3 -3 6 -15 10 -26
10 -32 0 -132 107 -146 157 -9 29 -13 124 -13 303 0 179 4 274 13 303 14 50
114 157 146 157 12 0 21 5 21 10 0 6 -40 10 -100 10 l-100 0 0 -490z"/>
<path d="M8905 2150 c3 -5 14 -10 25 -10 24 0 130 -107 130 -131 0 -10 5 -19
10 -19 6 0 10 35 10 85 l0 85 -91 0 c-57 0 -88 -4 -84 -10z"/>
<path d="M4905 1150 c3 -5 14 -10 25 -10 24 0 130 -107 130 -131 0 -10 5 -19
10 -19 6 0 10 35 10 85 l0 85 -91 0 c-57 0 -88 -4 -84 -10z"/>
<path d="M5905 1150 c3 -5 14 -10 25 -10 24 0 130 -107 130 -131 0 -10 5 -19
10 -19 6 0 10 35 10 85 l0 85 -91 0 c-57 0 -88 -4 -84 -10z"/>
</g>
</svg>
